<svg width="32" height="32" viewBox="0 0 32 32" fill="none" xmlns="http://www.w3.org/2000/svg">
    <path opacity="0.4" d="M16 12.9375C19.003 12.9375 21.4375 10.503 21.4375 7.5C21.4375 4.49695 19.003 2.0625 16 2.0625C12.997 2.0625 10.5625 4.49695 10.5625 7.5C10.5625 10.503 12.997 12.9375 16 12.9375Z" fill="white"/>
    <path d="M16 12.9375V2.0625C18.9981 2.0625 21.4375 4.50187 21.4375 7.5C21.4375 10.4981 18.9981 12.9375 16 12.9375Z" fill="white"/>
    <path opacity="0.4" d="M24.4375 22.6262V27.7488C24.4375 28.9556 23.4556 29.9375 22.2488 29.9375H9.75125C8.54438 29.9375 7.5625 28.9556 7.5625 27.7488V22.6262C7.5625 18.4556 10.9556 15.0625 15.1263 15.0625H16.8738C21.0444 15.0625 24.4375 18.4556 24.4375 22.6262Z" fill="white"/>
    <path d="M24.4375 22.6262V27.7488C24.4375 28.9556 23.4556 29.9375 22.2488 29.9375H16V15.0625H16.8738C21.0444 15.0625 24.4375 18.4556 24.4375 22.6262Z" fill="white"/>
    </svg>
    